<?xml version="1.0" encoding="UTF-8"?>
<!-- Generator: visioncortex VTracer 0.6.4 -->
<svg version="1.1" xmlns="http://www.w3.org/2000/svg" width="1011" height="659">
<path d="M0 0 C26.62 17.63 34.75 51.96 41.24 81.19 C41.49 82.44 41.74 83.7 42 85 C42.36 86.68 42.71 88.35 43.08 90.08 C44.62 99.56 44.25 109.16 44.2 118.73 C44.19 120.82 44.19 122.92 44.19 125.01 C44.18 130.47 44.16 135.93 44.14 141.4 C44.12 146.99 44.11 152.58 44.1 158.17 C44.08 169.11 44.04 180.06 44 191 C45.87 191.95 47.75 192.9 49.62 193.84 C50.66 194.37 51.71 194.9 52.78 195.44 C58.01 197.98 63.4 200.07 68.81 202.19 C71.47 203.24 74.13 204.29 76.79 205.35 C78.25 205.93 79.71 206.5 81.22 207.1 C90.37 210.74 99.5 214.43 108.62 218.12 C109.62 218.53 110.62 218.93 111.65 219.35 C136.78 229.51 161.87 239.78 186.95 250.09 C190.17 251.41 193.4 252.74 196.62 254.06 C198.21 254.71 199.8 255.37 201.44 256.04 C213.13 260.84 224.84 265.58 236.56 270.31 C259.1 279.41 281.55 288.69 304 298 C305.98 298.82 307.96 299.64 309.94 300.46 C317.4 303.56 324.86 306.65 332.32 309.75 C333.92 310.41 335.52 311.07 337.16 311.75 C339.26 312.63 339.26 312.63 341.4 313.51 C347.5 316.4 347.5 316.4 354 316 C356.17 313.99 356.17 313.99 358.38 311.94 C372.54 298.92 389.93 293.55 409 294 C430.36 296.16 446.94 304.78 461 321 C472.42 336.01 476.54 354.17 474.61 372.77 C471.71 391.7 461.47 408.6 446.16 420.14 C429.85 430.92 410.87 435.28 391.62 431.88 C372.64 427.69 357.17 417.45 346.31 401.25 C338 387.97 338 387.97 338 381 C336.55 380.64 336.55 380.64 335.07 380.28 C325.28 377.85 315.54 375.28 305.81 372.61 C304.29 372.2 302.78 371.78 301.22 371.36 C297.97 370.47 294.73 369.58 291.49 368.7 C282.85 366.33 274.21 363.97 265.58 361.61 C262.96 360.9 262.96 360.9 260.3 360.17 C244.1 355.75 227.9 351.37 211.69 347 C209.09 346.3 206.48 345.6 203.88 344.9 C198.91 343.56 193.93 342.22 188.96 340.88 C140.57 327.84 92.22 314.67 44 301 C42.79 316.26 42.87 331.49 42.9 346.79 C42.9 349.54 42.91 352.3 42.91 355.05 C42.91 362.25 42.92 369.45 42.93 376.65 C42.94 384.02 42.95 391.38 42.95 398.75 C42.96 413.17 42.98 427.58 43 442 C43.98 442.45 44.97 442.9 45.98 443.36 C50.51 445.43 55.05 447.5 59.58 449.57 C61.13 450.28 62.67 450.99 64.27 451.71 C73.76 456.05 83.23 460.41 92.69 464.81 C93.89 465.37 95.09 465.93 96.33 466.51 C97.93 467.25 97.93 467.25 99.56 468.01 C105.43 470.74 111.3 473.44 117.19 476.12 C128.5 481.3 139.78 486.52 151.06 491.75 C152.8 492.55 154.53 493.36 156.32 494.19 C159.65 495.73 162.99 497.28 166.32 498.83 C169.37 500.24 172.42 501.66 175.48 503.06 C176.82 503.69 178.17 504.31 179.56 504.95 C180.74 505.5 181.91 506.04 183.13 506.6 C186 508 186 508 189 510 C189.92 513.66 190.13 516.41 190.13 520.15 C190.14 522.01 190.14 522.01 190.14 523.91 C190.13 525.24 190.13 526.57 190.12 527.94 C190.12 529.3 190.12 530.66 190.12 532.07 C190.06 546.06 189.58 560.02 189 574 C183.87 576.57 182.52 575.62 177.14 573.91 C174.67 573.15 174.67 573.15 172.16 572.37 C170.35 571.79 168.55 571.22 166.69 570.62 C162.76 569.4 158.84 568.19 154.91 566.98 C153.87 566.65 152.84 566.33 151.77 566 C139.43 562.18 127.03 558.59 114.62 555 C112.3 554.33 109.98 553.65 107.66 552.98 C96.3 549.68 84.93 546.4 73.57 543.13 C72.51 542.82 71.45 542.52 70.36 542.21 C65.37 540.77 60.37 539.33 55.38 537.9 C53.64 537.4 51.9 536.89 50.11 536.38 C48.58 535.94 47.06 535.5 45.49 535.05 C42 534 42 534 40 533 C39.89 534.71 39.78 536.42 39.67 538.18 C39.1 544.98 37.83 551.49 36.31 558.12 C36.08 559.23 35.85 560.33 35.61 561.46 C32.94 573.21 28.31 581.18 18 588 C10.24 591.43 3.44 592.11 -5 592 C-4.97 593.02 -4.93 594.05 -4.89 595.11 C-4.87 596.45 -4.84 597.8 -4.81 599.19 C-4.78 600.52 -4.74 601.86 -4.71 603.23 C-5 607 -5 607 -8 612 C-12.67 615.5 -14.32 615.61 -20 615 C-23.33 613.12 -24.66 611.8 -26.16 608.28 C-27.1 604.63 -27.01 601.87 -26.62 598.12 C-26.51 596.97 -26.4 595.82 -26.29 594.63 C-26.19 593.76 -26.1 592.9 -26 592 C-27.03 592.05 -28.05 592.09 -29.11 592.14 C-40.64 592.44 -47.89 591.18 -57.81 585 C-71.1 572.31 -72.89 551.43 -75 534 C-76.36 534.42 -77.71 534.84 -79.11 535.27 C-92.95 539.53 -106.84 543.56 -120.78 547.48 C-124.28 548.46 -127.78 549.45 -131.28 550.44 C-135.86 551.73 -140.43 553.02 -145.01 554.31 C-151.99 556.28 -158.97 558.26 -165.94 560.25 C-167.46 560.69 -167.46 560.69 -169.02 561.13 C-175.65 563.03 -182.28 564.95 -188.9 566.89 C-190.63 567.39 -192.37 567.9 -194.15 568.42 C-197.56 569.41 -200.98 570.41 -204.39 571.41 C-205.94 571.86 -207.49 572.31 -209.09 572.78 C-210.47 573.18 -211.85 573.59 -213.27 574 C-216.52 574.87 -219.68 575.52 -223 576 C-226.6 570 -226.43 565.42 -226.4 558.66 C-226.4 557.45 -226.4 556.25 -226.41 555.01 C-226.41 552.48 -226.4 549.94 -226.39 547.4 C-226.38 543.51 -226.39 539.63 -226.41 535.75 C-226.41 533.28 -226.4 530.81 -226.4 528.34 C-226.4 527.18 -226.41 526.02 -226.42 524.82 C-226.37 518.95 -226.09 516.16 -223 511 C-219.28 507.52 -215.24 505.5 -210.64 503.36 C-209.19 502.68 -207.75 502 -206.26 501.3 C-204.75 500.6 -203.24 499.91 -201.69 499.19 C-200.22 498.5 -198.76 497.81 -197.25 497.11 C-188.73 493.13 -180.17 489.28 -171.54 485.55 C-163.34 481.96 -155.27 478.11 -147.21 474.2 C-130.56 466.11 -113.77 458.38 -96.89 450.77 C-91.54 448.33 -86.23 445.81 -80.92 443.28 C-78 442 -78 442 -76 442 C-76.04 440.68 -76.04 440.68 -76.08 439.33 C-76.7 419.14 -77.1 398.94 -77.28 378.74 C-77.3 377.12 -77.3 377.12 -77.31 375.48 C-77.4 365.46 -77.48 355.45 -77.55 345.44 C-77.59 339.88 -77.64 334.33 -77.69 328.77 C-77.72 325.67 -77.74 322.56 -77.76 319.46 C-77.78 317.6 -77.79 315.74 -77.81 313.83 C-77.83 311.37 -77.83 311.37 -77.85 308.86 C-77.82 305.08 -77.82 305.08 -79 302 C-102.28 308.2 -125.49 314.63 -148.69 321.12 C-170.26 327.17 -191.84 333.18 -213.44 339.12 C-233.3 344.59 -253.15 350.09 -273 355.62 C-274.26 355.98 -275.53 356.33 -276.83 356.69 C-290.45 360.49 -304.07 364.3 -317.68 368.15 C-321.13 369.12 -324.58 370.1 -328.03 371.07 C-331.23 371.98 -334.42 372.89 -337.62 373.8 C-339.56 374.35 -341.49 374.89 -343.43 375.44 C-345.09 375.91 -346.75 376.38 -348.47 376.87 C-352.66 377.92 -356.7 378.57 -361 379 C-361.19 380.2 -361.37 381.39 -361.56 382.62 C-366.34 400.47 -377.72 413.96 -392.75 424.25 C-410.39 433.49 -428.69 436.37 -448.12 431.38 C-467.8 425.19 -482.58 412.25 -492.38 394.19 C-500.58 376.43 -501.52 357.43 -495 339 C-490.79 329.31 -485.57 321.35 -478 314 C-476.8 312.8 -475.61 311.61 -474.38 310.38 C-457.72 297.53 -439.81 293.37 -419 295 C-404.12 297.39 -391.55 303.61 -381.01 314.35 C-377.92 316.5 -377.92 316.5 -373.83 314.82 C-369.39 313.15 -365 311.39 -360.64 309.52 C-359.05 308.84 -357.46 308.16 -355.82 307.45 C-354.12 306.73 -352.43 306 -350.69 305.25 C-347.07 303.7 -343.46 302.16 -339.84 300.62 C-338.02 299.84 -336.2 299.06 -334.33 298.26 C-326.48 294.93 -318.62 291.65 -310.75 288.38 C-309.28 287.76 -307.8 287.15 -306.28 286.52 C-301.86 284.68 -297.43 282.84 -293 281 C-268.74 270.92 -244.51 260.74 -220.31 250.51 C-206.31 244.59 -192.3 238.7 -178.28 232.8 C-174.28 231.12 -170.29 229.44 -166.3 227.75 C-154.86 222.93 -143.41 218.16 -131.93 213.47 C-130.96 213.08 -129.99 212.68 -128.99 212.28 C-124.21 210.33 -119.43 208.38 -114.65 206.44 C-104.5 202.31 -94.45 198.02 -84.49 193.44 C-81 192 -81 192 -78 192 C-78.07 190.53 -78.14 189.05 -78.21 187.53 C-78.96 170.3 -79.25 153.07 -79.3 135.82 C-79.31 132.81 -79.33 129.8 -79.36 126.79 C-79.53 108.7 -79.03 91.68 -75 74 C-74.71 72.7 -74.42 71.4 -74.13 70.06 C-73.38 66.87 -72.56 63.72 -71.69 60.56 C-71.39 59.47 -71.09 58.39 -70.78 57.27 C-64.28 34.38 -53.65 11.99 -33 -1 C-22.47 -6.52 -10.41 -5.02 0 0 Z " fill="#151717" transform="translate(516,24)"/>
<path d="M0 0 C0.02 23.28 0.04 46.56 0.05 69.83 C0.06 80.65 0.06 91.47 0.08 102.29 C0.12 148 0.05 193.7 -0.62 239.41 C-0.95 262.25 -1.14 285.08 -1.25 307.92 C-1.26 311.18 -1.28 314.43 -1.3 317.69 C-1.36 330.74 -1.43 343.8 -1.48 356.85 C-1.51 365.05 -1.55 373.25 -1.6 381.46 C-1.61 384.52 -1.63 387.59 -1.63 390.66 C-1.65 394.88 -1.67 399.1 -1.7 403.33 C-1.7 404.56 -1.7 405.79 -1.7 407.05 C-1.78 416.41 -2.08 424.79 -7 433 C-18.17 439.61 -28.21 441.07 -41 441 C-41.01 439.12 -41.03 437.24 -41.04 435.3 C-41.1 428.32 -41.18 421.34 -41.26 414.36 C-41.3 411.34 -41.32 408.32 -41.35 405.29 C-41.38 400.95 -41.43 396.61 -41.49 392.27 C-41.49 390.92 -41.5 389.57 -41.51 388.17 C-41.53 386.91 -41.55 385.65 -41.57 384.35 C-41.58 383.24 -41.59 382.13 -41.6 380.99 C-41.87 377.47 -41.87 377.47 -45 373 C-49.15 370.55 -49.15 370.55 -55 371 C-57.7 372.8 -59.54 374.08 -61 377 C-61.12 379.06 -61.18 381.13 -61.21 383.19 C-61.23 384.5 -61.25 385.8 -61.27 387.14 C-61.28 388.55 -61.3 389.96 -61.32 391.41 C-61.34 392.85 -61.36 394.29 -61.38 395.78 C-61.44 400.39 -61.5 405.01 -61.56 409.62 C-61.61 412.75 -61.65 415.87 -61.69 418.99 C-61.8 426.66 -61.9 434.33 -62 442 C-64.7 441.86 -67.4 441.72 -70.09 441.57 C-71.6 441.5 -73.1 441.42 -74.65 441.33 C-84.42 440.58 -92.23 438.29 -100 432 C-105.95 423.17 -105.3 412.46 -105.3 402.24 C-105.31 400.66 -105.32 399.07 -105.33 397.43 C-105.35 392.15 -105.37 386.87 -105.38 381.59 C-105.39 377.86 -105.41 374.14 -105.43 370.42 C-105.47 362.52 -105.5 354.61 -105.52 346.71 C-105.56 334.33 -105.61 321.95 -105.67 309.56 C-105.67 308.54 -105.68 307.52 -105.68 306.47 C-105.7 302.37 -105.72 298.27 -105.74 294.18 C-105.77 288.08 -105.79 281.99 -105.82 275.89 C-105.94 247.57 -106.18 219.26 -106.56 190.94 C-107.4 127.63 -107.09 64.31 -107 1 C-105.59 1.95 -104.19 2.91 -102.74 3.89 C-81.94 17.54 -55.14 18.63 -31.33 14.11 C-22.63 11.88 -7.69 0 0 0 Z " fill="#FAFBFA" transform="translate(552,139)"/>
<path d="M0 0 C6.31 2.1 12.36 4.28 18.51 6.78 C19.86 7.33 19.86 7.33 21.24 7.89 C24.21 9.09 27.17 10.3 30.12 11.5 C32.21 12.35 34.3 13.19 36.39 14.04 C39.64 15.36 42.88 16.68 46.13 18 C53.59 21.03 61.06 24.05 68.53 27.06 C86.34 34.24 104.14 41.43 121.87 48.8 C139.48 56.12 157.17 63.25 174.86 70.38 C195.78 78.81 216.66 87.31 237.5 95.94 C259.61 105.1 281.77 114.13 304 123 C304 127.01 302.46 129.41 300.69 133 C294.56 146.03 293.41 157.73 293 172 C285.98 171.45 279.57 169.88 272.88 167.81 C264.78 165.38 256.69 163.09 248.5 161 C238.82 158.51 229.25 155.78 219.69 152.91 C211.92 150.64 204.08 148.65 196.25 146.62 C190.06 145.02 183.88 143.39 177.7 141.75 C176.68 141.47 175.66 141.2 174.6 140.92 C171.48 140.09 168.37 139.27 165.25 138.44 C162.12 137.6 158.98 136.77 155.85 135.94 C153.81 135.4 151.77 134.86 149.73 134.31 C143.4 132.63 137.07 130.97 130.73 129.32 C123.8 127.5 116.93 125.55 110.06 123.5 C100.9 120.78 91.7 118.38 82.41 116.12 C77.6 114.9 72.9 113.46 68.18 111.96 C64.62 110.89 61.05 110 57.44 109.12 C49.72 107.23 42.14 104.97 34.54 102.66 C28.21 100.76 21.86 98.96 15.5 97.19 C14.42 96.89 13.34 96.58 12.22 96.27 C8.16 95.14 4.09 94.02 0 93 C0 62.31 0 31.62 0 0 Z " fill="#E7E9E5" transform="translate(559,224)"/>
<path d="M0 0 C0.71 31.01 1.16 61.98 1 93 C-6.55 96.18 -14.12 98.61 -22 100.81 C-23.82 101.33 -23.82 101.33 -25.68 101.85 C-35.1 104.5 -44.53 107.05 -53.98 109.57 C-59.85 111.13 -65.68 112.76 -71.5 114.5 C-78.47 116.58 -85.47 118.5 -92.5 120.38 C-108.49 124.65 -124.45 129.04 -140.31 133.75 C-145.79 135.38 -151.27 136.85 -156.82 138.2 C-167.63 140.91 -178.32 144.09 -189 147.25 C-200.63 150.68 -212.34 153.77 -224.07 156.8 C-231.21 158.66 -238.21 160.67 -245.18 163.07 C-249.92 164.63 -254.73 165.83 -259.56 167.06 C-267.06 168.98 -274.54 170.95 -282 173 C-282.03 171.63 -282.05 170.27 -282.08 168.86 C-282.57 152.84 -285.07 141.79 -293 128 C-293.66 126.35 -294.32 124.7 -295 123 C-276.81 114.83 -258.43 107.16 -240 99.55 C-228.84 94.94 -217.7 90.29 -206.56 85.62 C-204.75 84.87 -202.94 84.11 -201.07 83.33 C-186.32 77.14 -171.59 70.92 -156.87 64.67 C-143.21 58.87 -129.52 53.14 -115.8 47.47 C-108 44.25 -100.21 40.99 -92.44 37.69 C-81.64 33.1 -70.83 28.57 -60 24.06 C-58.47 23.42 -56.94 22.78 -55.36 22.13 C-49.56 19.71 -43.77 17.31 -37.94 14.98 C-29.48 11.59 -21.1 7.99 -12.71 4.43 C-11.36 3.86 -10.01 3.29 -8.62 2.7 C-6.79 1.92 -6.79 1.92 -4.91 1.13 C-2 0 -2 0 0 0 Z " fill="#E6EAE6" transform="translate(438,223)"/>
<path d="M0 0 C1.7 -0.01 3.4 -0.03 5.14 -0.04 C22.66 0.76 36.93 9.06 48.86 21.46 C61.49 36.27 63.34 52.23 62.19 71.19 C60.32 85.64 52.53 99.04 41.52 108.48 C26.35 119.92 9.01 125.37 -9.9 122.76 C-25.76 119.3 -40.09 110.15 -49.81 97.19 C-59.12 80.9 -63.87 64.79 -59.93 45.98 C-54.06 27.15 -43.17 14.41 -25.81 5.19 C-16.79 1.14 -9.83 0.04 0 0 Z " fill="#26282C" transform="translate(85.8125,326.8125)"/>
<path d="M0 0 C3.57 2.8 6.82 5.78 10 9 C11.05 10.05 12.1 11.1 13.19 12.19 C23.14 25.68 27.47 40.34 26 57 C22.89 75.38 15.19 89.68 0.06 100.94 C-15.45 110.32 -33.09 115.07 -51.14 111.09 C-68.06 105.78 -82.3 95.19 -90.91 79.52 C-98.04 65.13 -100.84 49.02 -96.44 33.25 C-90.29 15.86 -78.18 2.22 -61.56 -5.81 C-40.57 -14.07 -19.08 -12.76 0 0 Z " fill="#25272B" transform="translate(957,337)"/>
<path d="M0 0 C2.61 1.53 2.61 1.53 6.93 4.78 C7.74 5.38 8.55 5.97 9.39 6.58 C27.35 22.16 34.5 48.73 39.93 70.78 C40.25 71.97 40.57 73.16 40.9 74.38 C42.91 82.09 44.26 89.84 42.93 97.78 C35.05 109.94 21.59 115.86 7.9 118.89 C-13.14 122.5 -36.64 121.24 -55.07 109.78 C-58.07 107.22 -58.07 107.22 -60.07 104.78 C-60.76 104.03 -61.45 103.28 -62.16 102.51 C-66.38 96.49 -64.73 88.56 -63.53 81.65 C-57.66 51.78 -49.22 20.84 -24.45 1.09 C-16.53 -2.31 -8.19 -3.25 0 0 Z " fill="#2EABEC" transform="translate(509.07421875,29.21875)"/>
<path d="M0 0 C0 25.41 0 50.82 0 77 C-20.19 83.73 -20.19 83.73 -27.44 85.75 C-30.07 86.49 -30.07 86.49 -32.76 87.25 C-33.73 87.52 -34.71 87.79 -35.71 88.07 C-40.92 89.54 -46.13 91.04 -51.33 92.53 C-65.76 96.66 -80.21 100.76 -94.67 104.8 C-100.77 106.51 -106.87 108.24 -112.95 110.05 C-114.03 110.37 -115.11 110.69 -116.22 111.02 C-119.08 111.87 -121.94 112.73 -124.8 113.59 C-130.19 115.05 -135.49 116.08 -141 117 C-141.17 111.33 -141.34 105.67 -141.5 100 C-141.55 98.42 -141.6 96.83 -141.64 95.2 C-141.93 85.13 -142.06 75.08 -142 65 C-135.53 61.71 -128.97 58.65 -122.38 55.62 C-112.7 51.17 -103.03 46.69 -93.38 42.19 C-92.14 41.61 -90.9 41.03 -89.62 40.44 C-82.97 37.33 -76.33 34.22 -69.69 31.09 C-56.78 25.03 -43.87 19 -30.84 13.21 C-23.98 10.08 -17.19 6.79 -10.42 3.45 C-3.32 0 -3.32 0 0 0 Z " fill="#E6E8E3" transform="translate(441,473)"/>
<path d="M0 0 C3.88 1.55 7.67 3.18 11.48 4.91 C13.41 5.8 13.41 5.8 15.39 6.69 C16.79 7.33 18.19 7.97 19.62 8.62 C21.83 9.63 21.83 9.63 24.07 10.65 C28.71 12.76 33.36 14.88 38 17 C39.42 17.65 40.85 18.3 42.32 18.97 C61.43 27.68 80.52 36.47 99.57 45.32 C110.46 50.37 121.38 55.38 132.34 60.29 C136 62 136 62 139 64 C139.27 67.98 139.35 71.81 139.29 75.79 C139.29 76.96 139.28 78.14 139.28 79.35 C139.26 83.11 139.23 86.87 139.19 90.62 C139.17 93.17 139.16 95.71 139.15 98.26 C139.11 104.51 139.06 110.75 139 117 C130.86 115.35 122.93 113.49 115 111 C113.08 110.43 111.15 109.87 109.23 109.32 C108.25 109.03 107.26 108.75 106.25 108.45 C105.24 108.16 104.23 107.86 103.19 107.56 C96.88 105.73 90.58 103.9 84.31 101.94 C74.04 98.74 63.67 95.86 53.31 92.97 C46.18 90.97 39.12 88.77 32.06 86.5 C24.45 84.06 16.84 81.79 9.09 79.82 C6.03 79.01 3.01 78 0 77 C0 51.59 0 26.18 0 0 Z " fill="#E5E6E2" transform="translate(557,473)"/>
<path d="M0 0 C1.41 0.96 2.82 1.91 4.27 2.9 C8.25 5.51 11.62 7.29 16.06 8.88 C17.19 9.28 18.31 9.69 19.47 10.12 C20.31 10.41 21.14 10.7 22 11 C21.01 11.5 21.01 11.5 20 12 C20.07 13.15 20.14 14.29 20.21 15.47 C21.23 34.35 21.15 53.22 21.16 72.12 C21.16 75.95 21.17 79.78 21.17 83.61 C21.18 91.81 21.19 100.01 21.2 108.22 C21.21 121.19 21.23 134.16 21.25 147.13 C21.26 151.58 21.27 156.03 21.27 160.48 C21.28 161.59 21.28 162.7 21.28 163.85 C21.3 176.46 21.32 189.07 21.34 201.68 C21.34 203.41 21.34 203.41 21.34 205.17 C21.37 223.86 21.39 242.55 21.4 261.25 C21.42 280.48 21.45 299.71 21.49 318.94 C21.51 330.78 21.53 342.62 21.53 354.47 C21.53 363.53 21.55 372.6 21.57 381.66 C21.58 385.38 21.58 389.09 21.58 392.81 C21.57 397.88 21.59 402.95 21.61 408.02 C21.6 409.49 21.6 410.96 21.59 412.48 C21.64 420.57 22.51 427.3 25 435 C25.5 436.98 25.5 436.98 26 439 C18.64 438.73 13.97 436.24 8 432 C1.17 422.78 1.7 412.22 1.7 401.24 C1.69 399.66 1.68 398.07 1.67 396.43 C1.65 391.15 1.63 385.87 1.62 380.59 C1.61 376.86 1.59 373.14 1.57 369.42 C1.53 361.52 1.5 353.61 1.48 345.71 C1.44 333.33 1.39 320.95 1.33 308.56 C1.33 307.54 1.32 306.52 1.32 305.47 C1.3 301.37 1.28 297.27 1.26 293.18 C1.23 287.08 1.21 280.99 1.18 274.89 C1.06 246.57 0.82 218.26 0.44 189.94 C-0.4 126.63 -0.09 63.31 0 0 Z " fill="#E4E4DF" transform="translate(445,140)"/>
<path d="M0 0 C6.28 2.03 12.4 4.3 18.51 6.78 C19.86 7.33 19.86 7.33 21.24 7.89 C24.21 9.09 27.17 10.3 30.12 11.5 C32.21 12.35 34.3 13.19 36.39 14.04 C39.64 15.36 42.88 16.68 46.13 18 C53.59 21.03 61.06 24.05 68.53 27.06 C86.34 34.24 104.14 41.43 121.87 48.8 C139.48 56.12 157.17 63.25 174.86 70.38 C195.78 78.81 216.66 87.31 237.5 95.94 C259.61 105.1 281.77 114.13 304 123 C304 127.93 301.23 131.7 299 136 C290.58 133.34 282.44 130.05 274.25 126.75 C272.72 126.13 271.18 125.52 269.6 124.88 C253.93 118.58 238.28 112.24 222.64 105.88 C215.03 102.79 207.42 99.71 199.81 96.62 C198.29 96.01 196.78 95.39 195.21 94.76 C187.1 91.47 178.99 88.19 170.88 84.91 C136.69 71.09 102.54 57.15 68.49 42.99 C57.14 38.28 45.75 33.67 34.33 29.13 C22.83 24.56 11.41 19.8 0 15 C0 10.05 0 5.1 0 0 Z " fill="#31A4DD" transform="translate(559,224)"/>
<path d="M0 0 C0 5.28 0 10.56 0 16 C-2.63 16.99 -2.63 16.99 -5.31 18 C-12.65 20.82 -19.89 23.87 -27.13 26.94 C-32.74 29.31 -38.37 31.66 -44 34 C-45.35 34.56 -46.7 35.12 -48.09 35.7 C-70.16 44.88 -92.25 53.99 -114.38 63.02 C-126.27 67.88 -138.15 72.75 -149.94 77.88 C-161.09 82.69 -172.36 87.22 -183.62 91.76 C-196.96 97.16 -210.27 102.63 -223.56 108.12 C-224.55 108.53 -225.53 108.94 -226.55 109.36 C-232.7 111.9 -238.85 114.45 -245 117 C-246.14 117.47 -247.28 117.94 -248.45 118.42 C-257.94 122.35 -267.34 126.49 -276.75 130.62 C-278.04 131.19 -279.33 131.75 -280.66 132.33 C-281.83 132.84 -283 133.36 -284.21 133.89 C-287 135 -287 135 -289 135 C-295 125.64 -295 125.64 -295 123 C-276.81 114.83 -258.43 107.16 -240 99.55 C-228.84 94.94 -217.7 90.29 -206.56 85.62 C-204.75 84.87 -202.94 84.11 -201.07 83.33 C-186.32 77.14 -171.59 70.92 -156.87 64.67 C-143.21 58.87 -129.52 53.14 -115.8 47.47 C-108 44.25 -100.21 40.99 -92.44 37.69 C-81.64 33.1 -70.83 28.57 -60 24.06 C-58.47 23.42 -56.94 22.78 -55.36 22.13 C-49.56 19.71 -43.77 17.31 -37.94 14.98 C-29.48 11.59 -21.1 7.99 -12.71 4.43 C-11.36 3.86 -10.01 3.29 -8.62 2.7 C-6.79 1.92 -6.79 1.92 -4.91 1.13 C-2 0 -2 0 0 0 Z " fill="#2FA0DA" transform="translate(438,223)"/>
<path d="M0 0 C0 8.58 0 17.16 0 26 C0.66 26.33 1.32 26.66 2 27 C-6 29.34 -14 31.67 -22 34 C-23.8 34.52 -25.6 35.05 -27.46 35.59 C-37.57 38.51 -47.71 41.26 -57.89 43.89 C-66.72 46.17 -75.47 48.65 -84.2 51.25 C-91.38 53.38 -98.55 55.43 -105.82 57.2 C-116.96 60 -127.98 63.27 -139 66.5 C-168.03 75 -168.03 75 -171 75 C-171 67.74 -171 60.48 -171 53 C-157.23 48.35 -143.46 43.77 -129.51 39.67 C-121.02 37.1 -112.59 34.35 -104.15 31.6 C-96.12 28.99 -88.08 26.46 -80 24 C-78.11 23.42 -76.21 22.85 -74.26 22.25 C-72.42 21.7 -70.58 21.14 -68.69 20.56 C-52.68 15.69 -36.74 10.64 -20.82 5.48 C-19.53 5.06 -18.24 4.64 -16.9 4.21 C-15.74 3.83 -14.58 3.45 -13.39 3.07 C-3.64 0 -3.64 0 0 0 Z " fill="#2CA9EA" transform="translate(387,304)"/>
<path d="M0 0 C7.02 1.56 13.86 3.34 20.75 5.38 C21.75 5.67 22.74 5.96 23.77 6.26 C30 8.09 36.22 9.98 42.44 11.9 C46.45 13.14 50.46 14.36 54.48 15.59 C56.72 16.27 56.72 16.27 59.01 16.97 C62.06 17.9 65.12 18.83 68.17 19.76 C77.54 22.62 86.89 25.54 96.23 28.5 C104.16 31 112.11 33.44 120.06 35.88 C123.47 36.92 126.87 37.97 130.28 39.01 C131.92 39.52 133.57 40.02 135.27 40.54 C139.56 41.86 143.84 43.19 148.13 44.52 C149.33 44.89 150.52 45.26 151.76 45.64 C153.94 46.32 156.12 47 158.3 47.68 C162.53 48.99 166.65 50.13 171 51 C171.33 58.26 171.66 65.52 172 73 C159.94 70.22 147.97 67.17 136 64 C134.06 63.49 132.12 62.97 130.18 62.46 C122.9 60.53 115.61 58.59 108.32 56.66 C105.19 55.82 102.05 54.99 98.91 54.16 C97.89 53.89 96.88 53.62 95.83 53.34 C89.46 51.65 83.09 49.98 76.71 48.31 C69.79 46.49 62.92 44.55 56.06 42.5 C46.9 39.79 37.7 37.38 28.42 35.12 C23.57 33.89 18.82 32.44 14.05 30.91 C8.77 29.33 3.39 28.18 -2 27 C-1.34 26.67 -0.68 26.34 0 26 C0 17.42 0 8.84 0 0 Z " fill="#2FAAE8" transform="translate(613,305)"/>
<path d="M0 0 C3.57 2.8 6.82 5.78 10 9 C11.05 10.05 12.1 11.1 13.19 12.19 C23.14 25.68 27.47 40.34 26 57 C22.89 75.38 15.19 89.68 0.06 100.94 C-15.45 110.32 -33.09 115.07 -51.14 111.09 C-68.06 105.78 -82.3 95.19 -90.91 79.52 C-98.04 65.13 -100.84 49.02 -96.44 33.25 C-90.29 15.86 -78.18 2.22 -61.56 -5.81 C-40.57 -14.07 -19.08 -12.76 0 0 Z M-75.93 17.58 C-86.92 30.39 -87.98 43.8 -87 60 C-84.16 73.61 -76.48 83.46 -66.12 92.31 C-53.28 100.68 -41.12 101.99 -26 101 C-11.65 97.93 -0.03 89.4 8.19 77.31 C15.83 63.6 16.95 49.74 13.88 34.38 C6.64 17.49 -4.35 7.82 -21 1 C-42.82 -3.36 -60.5 1.51 -75.93 17.58 Z " fill="#F3F3F3" transform="translate(957,337)"/>
<path d="M0 0 C1.7 -0.01 3.4 -0.03 5.14 -0.04 C22.66 0.76 36.93 9.06 48.86 21.46 C61.49 36.27 63.34 52.23 62.19 71.19 C60.32 85.64 52.53 99.04 41.52 108.48 C26.35 119.92 9.01 125.37 -9.9 122.76 C-25.76 119.3 -40.09 110.15 -49.81 97.19 C-59.12 80.9 -63.87 64.79 -59.93 45.98 C-54.06 27.15 -43.17 14.41 -25.81 5.19 C-16.79 1.14 -9.83 0.04 0 0 Z M-39.52 28.31 C-50.07 41.54 -52.07 55.9 -50.25 72.25 C-45.78 87.6 -36.26 98.88 -22.81 107.19 C-9.27 113.24 5.15 114.49 19.27 109.44 C34.07 103.11 43.49 92.6 50.19 78.19 C54.07 65.72 53.72 51.99 48.19 40.19 C40.03 25.14 30.2 16.81 14.19 11.19 C-7.04 6.94 -24.69 12.85 -39.52 28.31 Z " fill="#F4F4F4" transform="translate(85.8125,326.8125)"/>
<path d="M0 0 C0 0.99 0 1.98 0 3 C-0.66 3 -1.32 3 -2 3 C-3.5 5.99 -4.97 8.99 -6.44 12 C-9 17 -9 17 -12 21 C-12.72 24.15 -12.72 24.15 -13 27 C-13.66 27 -14.32 27 -15 27 C-15.26 27.92 -15.52 28.83 -15.79 29.77 C-17.3 35.06 -18.84 40.34 -20.38 45.62 C-20.69 46.69 -21 47.76 -21.31 48.86 C-22.94 54.45 -24.61 60.01 -26.38 65.56 C-28.54 72.81 -29.12 79.23 -29.1 86.78 C-29.09 89.25 -29.09 89.25 -29.09 91.77 C-29.08 93.47 -29.07 95.18 -29.06 96.94 C-29.06 98.67 -29.05 100.4 -29.05 102.19 C-29.04 106.46 -29.02 110.73 -29 115 C-27.35 115.33 -25.7 115.66 -24 116 C-24 116.66 -24 117.32 -24 118 C-32.7 116.91 -41.38 112.85 -47 106 C-47.69 105.25 -48.38 104.5 -49.09 103.73 C-53.3 97.71 -51.65 89.77 -50.46 82.87 C-44.96 54.91 -37.23 22.19 -13.35 3.98 C-8.44 0.83 -5.95 0 0 0 Z " fill="#258FC5" transform="translate(496,28)"/>
<path d="M0 0 C3.88 1.55 7.67 3.18 11.48 4.91 C13.41 5.8 13.41 5.8 15.39 6.69 C16.79 7.33 18.19 7.97 19.62 8.62 C21.83 9.63 21.83 9.63 24.07 10.65 C28.71 12.76 33.36 14.88 38 17 C39.42 17.65 40.85 18.3 42.32 18.97 C61.43 27.68 80.52 36.47 99.57 45.32 C110.46 50.37 121.38 55.38 132.34 60.29 C136 62 136 62 139 64 C139.29 67.26 139.29 67.26 139.19 71.12 C139.15 73.05 139.15 73.05 139.11 75.01 C139.07 76 139.04 76.98 139 78 C132.87 76.77 127.8 74.12 122.25 71.38 C111.94 66.34 101.58 61.47 91.12 56.75 C79.04 51.29 66.98 45.79 54.94 40.25 C53.38 39.53 51.82 38.82 50.22 38.08 C47.21 36.69 44.19 35.31 41.18 33.92 C35.29 31.21 29.39 28.51 23.5 25.81 C15.66 22.22 7.83 18.62 0 15 C0 10.05 0 5.1 0 0 Z " fill="#34A2D9" transform="translate(557,473)"/>
<path d="M0 0 C0 4.62 0 9.24 0 14 C-2.85 15.35 -5.71 16.71 -8.56 18.06 C-10.15 18.82 -11.74 19.57 -13.38 20.35 C-26.55 26.58 -39.78 32.69 -53 38.81 C-55.66 40.05 -55.66 40.05 -58.38 41.31 C-70.73 47.03 -83.08 52.74 -95.44 58.44 C-97.04 59.18 -98.65 59.92 -100.3 60.68 C-107.58 64.04 -114.86 67.4 -122.15 70.72 C-123.37 71.28 -124.59 71.84 -125.85 72.42 C-128.09 73.44 -130.33 74.46 -132.57 75.47 C-137.65 77.67 -137.65 77.67 -142 81 C-142 75.72 -142 70.44 -142 65 C-135.53 61.71 -128.97 58.65 -122.38 55.62 C-112.7 51.17 -103.03 46.69 -93.38 42.19 C-92.14 41.61 -90.9 41.03 -89.62 40.44 C-82.97 37.33 -76.33 34.22 -69.69 31.09 C-56.78 25.03 -43.87 19 -30.84 13.21 C-23.98 10.08 -17.19 6.79 -10.42 3.45 C-3.32 0 -3.32 0 0 0 Z " fill="#309ED5" transform="translate(441,473)"/>
<path d="M0 0 C12.45 8.41 20.94 19.4 24.62 34.12 C25.57 51.31 23.25 64.55 12.21 78.08 C2.95 88.07 -8.73 94.32 -22.42 95.46 C-39.19 95.62 -50.97 91.42 -63.62 80.44 C-74.03 68.47 -78.8 55.62 -78.65 39.86 C-77.64 26.18 -70.94 14.8 -61.15 5.45 C-43.52 -9.35 -19.99 -11.4 0 0 Z M-61.56 15.31 C-70.7 27.7 -73.01 40.15 -70.75 55.31 C-65.48 69.92 -58.39 78.51 -44.59 85.71 C-33.95 90.39 -23.02 90.69 -12 87.06 C-0.43 82.41 9.19 73.83 14.5 62.5 C19.71 49.32 20.11 38.27 14.62 25.12 C9.13 14.37 1.53 7.43 -9.38 2.12 C-29.8 -4.05 -46.76 0.51 -61.56 15.31 Z " fill="#0A0A0A" transform="translate(113.375,343.875)"/>
<path d="M0 0 C2.85 -0.04 2.85 -0.04 5.75 -0.08 C19.39 0.71 30.88 6.69 40.44 16.25 C51.46 29.85 53.38 43.05 52.44 60.25 C49.66 74.97 40.67 86.27 28.62 94.56 C14.61 101.82 1.31 103.31 -14.25 100.06 C-31.01 93.02 -41.67 82 -48.56 65.25 C-51.51 50.49 -50.75 35.81 -42.38 23.06 C-41.14 21.43 -39.86 19.83 -38.56 18.25 C-37.94 17.48 -37.31 16.71 -36.67 15.91 C-27.1 5.22 -14.03 0.11 0 0 Z M-33.56 22.25 C-41.54 33.18 -44.74 44.85 -43.56 58.25 C-39.72 71.57 -33.26 81.73 -21.75 89.5 C-10.13 95.66 0.89 96.87 13.69 94.12 C27.63 88.62 37.15 81.16 43.44 67.25 C47.93 55.86 48.05 43.62 43.44 32.25 C40.6 27.46 40.6 27.46 37.44 23.25 C36.57 21.95 36.57 21.95 35.69 20.62 C28.21 12.73 17.28 6.67 6.3 6.08 C-9.98 5.99 -22.22 10.24 -33.56 22.25 Z " fill="#090908" transform="translate(919.5625,336.75)"/>
<path d="M0 0 C0.93 25.67 1.12 51.31 1 77 C-5.32 79.6 -11.28 81.7 -18 83 C-18.98 79.09 -19.16 75.95 -19.21 71.94 C-19.23 70.5 -19.25 69.05 -19.27 67.57 C-19.28 66.02 -19.3 64.46 -19.32 62.86 C-19.34 61.27 -19.36 59.67 -19.38 58.03 C-19.44 52.94 -19.5 47.84 -19.56 42.75 C-19.61 39.3 -19.65 35.85 -19.69 32.4 C-19.8 23.93 -19.9 15.47 -20 7 C-17.42 5.82 -14.84 4.66 -12.25 3.5 C-10.09 2.53 -10.09 2.53 -7.89 1.53 C-4 0 -4 0 0 0 Z " fill="#C6C7BE" transform="translate(438,239)"/>
<path d="M0 0 C6.4 2.13 12.73 4.49 19 7 C19 32.08 19 57.16 19 83 C12.65 81.41 6.3 79.8 0 78 C0 52.26 0 26.52 0 0 Z " fill="#C9C8C0" transform="translate(559,239)"/>
<path d="M0 0 C0 20.79 0 41.58 0 63 C-18 69 -18 69 -22 68 C-21.67 49.19 -21.34 30.38 -21 11 C-21.66 10.67 -22.32 10.34 -23 10 C-19.54 8.33 -16.09 6.66 -12.62 5 C-11.15 4.28 -11.15 4.28 -9.64 3.55 C-2.23 0 -2.23 0 0 0 Z " fill="#CECEC8" transform="translate(441,487)"/>
<path d="M0 0 C7.22 2.41 14.1 5.78 21 9 C21.33 28.47 21.66 47.94 22 68 C6 64 6 64 0 62 C0 41.54 0 21.08 0 0 Z " fill="#C4C3BD" transform="translate(557,488)"/>
<path d="M0 0 C5 1 5 1 7 3 C7.2 6.48 7.27 9.97 7.27 13.46 C7.28 14.55 7.28 15.64 7.29 16.76 C7.3 20.37 7.3 23.98 7.3 27.59 C7.3 30.09 7.31 32.59 7.31 35.09 C7.32 40.34 7.32 45.59 7.32 50.84 C7.31 57.57 7.33 64.31 7.35 71.05 C7.36 76.22 7.37 81.38 7.36 86.55 C7.36 89.03 7.37 91.52 7.38 94 C7.39 97.47 7.38 100.94 7.37 104.41 C7.37 106.39 7.37 108.36 7.37 110.4 C7 115 7 115 4 118 C-1 117 -1 117 -2 116 C-2.11 112.48 -2.15 108.98 -2.15 105.45 C-2.15 104.34 -2.15 103.24 -2.16 102.09 C-2.16 98.41 -2.17 94.72 -2.17 91.04 C-2.17 88.49 -2.17 85.94 -2.18 83.39 C-2.18 78.03 -2.19 72.68 -2.19 67.33 C-2.19 60.45 -2.2 53.58 -2.22 46.7 C-2.23 41.44 -2.23 36.17 -2.23 30.9 C-2.23 28.36 -2.23 25.83 -2.24 23.29 C-2.25 19.75 -2.25 16.22 -2.24 12.68 C-2.25 11.62 -2.25 10.56 -2.26 9.47 C-2.23 2.23 -2.23 2.23 0 0 Z " fill="#9FA09B" transform="translate(498,515)"/>
<path d="M0 0 C1.92 0.93 1.92 0.93 3.88 1.88 C14.67 6.35 25.45 6.48 37 7 C37 14.26 37 21.52 37 29 C16.53 29.69 16.53 29.69 7.69 22.19 C3.61 15.83 0 7.68 0 0 Z " fill="#1A7AB4" transform="translate(453,580)"/>
<path d="M0 0 C0.33 0 0.66 0 1 0 C1.1 44.12 1.16 88.24 0.5 132.36 C-0.09 171.72 -0.31 211.08 -0.56 250.44 C-0.57 252.16 -0.58 253.88 -0.6 255.65 C-0.73 277.1 -0.87 298.55 -1 320 C-1.33 320 -1.66 320 -2 320 C-3.02 257.58 -3.09 195.17 -3.06 132.75 C-3.06 131.2 -3.06 131.2 -3.06 129.63 C-3.05 102.75 -3.03 75.88 -3 49 C-2.01 48.5 -2.01 48.5 -1 48 C-0.67 32.16 -0.34 16.32 0 0 Z " fill="#DEDEDB" transform="translate(551,236)"/>
<path d="M0 0 C1.49 0.5 1.49 0.5 3 1 C-0.22 12.54 -3.21 20.46 -14 26.75 C-19.87 29.2 -24.51 29 -31 29 C-31 21.74 -31 14.48 -31 7 C-28.65 6.74 -28.65 6.74 -26.25 6.48 C-24.17 6.24 -22.08 6 -20 5.75 C-18.46 5.59 -18.46 5.59 -16.88 5.42 C-10.44 4.64 -5.69 3.02 0 0 Z " fill="#1C9BEC" transform="translate(542,580)"/>
<path d="M0 0 C7.02 1.56 13.86 3.34 20.75 5.38 C21.75 5.67 22.74 5.96 23.77 6.26 C30 8.09 36.22 9.98 42.44 11.9 C46.45 13.14 50.46 14.36 54.48 15.59 C56.72 16.27 56.72 16.27 59.01 16.97 C62.06 17.9 65.12 18.83 68.17 19.76 C77.52 22.61 86.85 25.53 96.17 28.48 C106.1 31.6 116.05 34.63 126.01 37.68 C134.71 40.34 143.38 43.07 152 46 C152 46.33 152 46.66 152 47 C148.04 47.08 144.87 46.97 141 46 C138.96 45.88 136.92 45.78 134.88 45.69 C132.94 45.46 131 45.23 129 45 C128.01 43.02 128.01 43.02 127 41 C122.4 39.69 122.4 39.69 117.06 38.88 C107.27 37.18 107.27 37.18 104 35 C103.67 34.34 103.34 33.68 103 33 C99.98 32.19 96.93 31.51 93.88 30.88 C92.2 30.52 90.53 30.17 88.8 29.8 C84.73 29.12 81.11 28.83 77 29 C77.33 27.68 77.66 26.36 78 25 C70.58 24.01 70.58 24.01 63 23 C63 22.34 63 21.68 63 21 C61.68 21.33 60.36 21.66 59 22 C57.68 21.67 56.36 21.34 55 21 C54.5 19.02 54.5 19.02 54 17 C48.34 15.67 42.78 14.63 37 14 C37 13.34 37 12.68 37 12 C34.99 11.85 34.99 11.85 32.94 11.69 C28.31 11.04 25.23 9.84 21 8 C18.33 7.66 15.67 7.33 13 7 C10.31 6.05 7.64 5.06 5 4 C3.68 3.67 2.36 3.34 1 3 C1 10.59 1 18.18 1 26 C4.3 26.33 7.6 26.66 11 27 C10.67 27.66 10.34 28.32 10 29 C5.38 28.54 2.19 28.1 -2 26 C-1.34 26 -0.68 26 0 26 C0 17.42 0 8.84 0 0 Z " fill="#3EA6D3" transform="translate(613,305)"/>
<path d="M0 0 C-2 4 -2 4 -4.71 4.94 C-5.78 5.15 -6.84 5.35 -7.94 5.56 C-13.04 6.55 -13.04 6.55 -17 10 C-21.78 12.39 -26.11 13.06 -31.38 14 C-38.55 15.25 -38.55 15.25 -45.54 17.19 C-48 18 -48 18 -50 17 C-50 17.66 -50 18.32 -50 19 C-50.99 19 -51.98 19 -53 19 C-53 19.66 -53 20.32 -53 21 C-54.49 21.23 -55.97 21.45 -57.5 21.69 C-62.93 22.64 -62.93 22.64 -66.62 25.44 C-72.13 28.66 -77.24 29.42 -83.49 30.42 C-86.96 30.9 -86.96 30.9 -90 32 C-90 30.68 -90 29.36 -90 28 C-76.23 23.35 -62.47 18.77 -48.52 14.67 C-39.94 12.07 -31.41 9.29 -22.88 6.51 C-2.84 0 -2.84 0 0 0 Z " fill="#44AADB" transform="translate(306,329)"/>
<path d="M0 0 C0.33 0 0.66 0 1 0 C1.02 11.82 1.04 23.65 1.05 35.47 C1.06 40.96 1.06 46.45 1.08 51.94 C1.09 57.24 1.09 62.55 1.09 67.85 C1.1 70.85 1.11 73.84 1.11 76.84 C1.11 78.68 1.11 80.52 1.11 82.42 C1.12 84.03 1.12 85.64 1.12 87.3 C0.99 92.25 0.54 97.09 0 102 C-0.13 104.44 -0.24 106.88 -0.32 109.32 C-0.36 110.6 -0.4 111.87 -0.44 113.19 C-0.48 114.49 -0.52 115.79 -0.56 117.12 C-0.61 118.46 -0.65 119.8 -0.69 121.18 C-0.8 124.45 -0.9 127.73 -1 131 C-1.66 131.33 -2.32 131.66 -3 132 C-3 104.61 -3 77.22 -3 49 C-2.01 48.5 -2.01 48.5 -1 48 C-0.67 32.16 -0.34 16.32 0 0 Z " fill="#D2D2D0" transform="translate(551,236)"/>
<path d="M0 0 C0 4.62 0 9.24 0 14 C-3.12 15.5 -6.25 17 -9.38 18.5 C-11.12 19.34 -12.86 20.17 -14.65 21.03 C-19 23 -19 23 -21 23 C-21.33 18.38 -21.66 13.76 -22 9 C-18.9 7.49 -15.79 5.99 -12.69 4.5 C-10.96 3.66 -9.23 2.83 -7.45 1.97 C-3 0 -3 0 0 0 Z " fill="#2683B6" transform="translate(441,473)"/>
<path d="M0 0 C0 5.28 0 10.56 0 16 C-6.31 18.45 -12.58 20.86 -19 23 C-19 18.38 -19 13.76 -19 9 C-19.66 8.67 -20.32 8.34 -21 8 C-17.88 6.66 -14.75 5.33 -11.62 4 C-9.88 3.26 -8.14 2.51 -6.35 1.75 C-2 0 -2 0 0 0 Z " fill="#2284B8" transform="translate(438,223)"/>
<path d="M0 0 C4.48 1.79 8.89 3.69 13.31 5.62 C15.47 6.57 15.47 6.57 17.68 7.54 C19.32 8.26 19.32 8.26 21 9 C20.25 19.75 20.25 19.75 18 22 C11.38 20.68 6.1 17.89 0 15 C0 10.05 0 5.1 0 0 Z " fill="#227EB1" transform="translate(557,473)"/>
<path d="M0 0 C6.45 2.08 12.73 4.44 19 7 C19 11.95 19 16.9 19 22 C12.38 20.14 6.23 17.91 0 15 C0 10.05 0 5.1 0 0 Z " fill="#2B85B8" transform="translate(559,224)"/>
<path d="M0 0 C-4.3 5.44 -8.34 5.88 -15 7 C-17.69 7.94 -20.36 8.93 -23 10 C-28 12 -28 12 -31.31 12.44 C-35.14 12.89 -35.14 12.89 -39.06 14.56 C-43 16 -43 16 -49 16 C-49.33 16.33 -49.66 16.66 -50 17 C-51.98 17 -53.96 17 -56 17 C-52.11 14.41 -48.3 13.49 -43.81 12.19 C-30.75 8.34 -17.77 4.34 -4.91 -0.18 C-2 -1 -2 -1 0 0 Z " fill="#47ACDB" transform="translate(363,312)"/>
<path d="M0 0 C0.33 0 0.66 0 1 0 C1.03 0.94 1.05 1.88 1.08 2.85 C1.19 7.21 1.31 11.58 1.44 15.94 C1.48 17.49 1.52 19.05 1.57 20.65 C1.84 29.91 2.21 39.14 2.91 48.38 C2.94 49.24 2.97 50.11 3 51 C2.5 51.5 2.5 51.5 2 52 C1.91 56.41 1.88 60.81 1.9 65.22 C1.9 66.55 1.91 67.88 1.91 69.25 C1.91 73.52 1.92 77.79 1.94 82.06 C1.94 84.95 1.95 87.83 1.95 90.72 C1.96 97.81 1.98 104.91 2 112 C1.01 112.5 1.01 112.5 0 113 C0 75.71 0 38.42 0 0 Z " fill="#F4F4EF" transform="translate(446,181)"/>
<path d="M0 0 C4.5 2.75 4.5 2.75 9 6 C9 7.32 9 8.64 9 10 C7.35 10.33 5.7 10.66 4 11 C3.95 12.93 3.9 14.85 3.85 16.84 C3.78 19.35 3.7 21.86 3.62 24.38 C3.59 25.65 3.56 26.92 3.53 28.23 C3.49 29.44 3.45 30.65 3.41 31.9 C3.38 33.02 3.35 34.14 3.32 35.29 C3 38 3 38 1 40 C-0.06 31.43 -0.12 23 -0.06 14.38 C-0.06 12.99 -0.05 11.6 -0.05 10.18 C-0.04 6.78 -0.02 3.39 0 0 Z " fill="#F1F2EE" transform="translate(445,140)"/>
<path d="M0 0 C1.49 0.5 1.49 0.5 3 1 C2.41 3.09 1.8 5.17 1.19 7.25 C0.68 8.99 0.68 8.99 0.17 10.77 C-1 14 -1 14 -4 18 C-4 13 -4 13 -3 9 C-7.53 7.21 -8.98 7 -14 8 C-15.98 8 -17.96 8 -20 8 C-20.33 8.66 -20.66 9.32 -21 10 C-24.3 9.67 -27.6 9.34 -31 9 C-31 8.34 -31 7.68 -31 7 C-28.65 6.74 -28.65 6.74 -26.25 6.48 C-24.17 6.24 -22.08 6 -20 5.75 C-18.46 5.59 -18.46 5.59 -16.88 5.42 C-10.44 4.64 -5.69 3.02 0 0 Z " fill="#2887C9" transform="translate(542,580)"/>
<path d="M0 0 C0.33 0 0.66 0 1 0 C1 13.53 1 27.06 1 41 C0.67 41 0.34 41 0 41 C-0.12 39.54 -0.25 38.07 -0.38 36.56 C-0.58 35.06 -0.79 33.55 -1 32 C-1.66 31.67 -2.32 31.34 -3 31 C-3.08 27.52 -3.14 24.04 -3.19 20.56 C-3.22 18.63 -3.26 16.69 -3.29 14.69 C-3.01 9.2 -2 5.09 0 0 Z " fill="#A8A79F" transform="translate(438,274)"/>
<path d="M0 0 C3.19 0.73 6.07 1.53 9 3 C10.65 3 12.3 3 14 3 C21.44 5.44 21.44 5.44 24 8 C25.38 8.14 26.76 8.29 28.19 8.44 C32.77 8.97 35.94 9.88 40 12 C40.5 12.99 40.5 12.99 41 14 C32.93 13.51 25.99 11.21 18.44 8.56 C7.84 4.88 7.84 4.88 -3 2 C-2.01 1.34 -1.02 0.68 0 0 Z " fill="#CDE9EF" transform="translate(704,330)"/>
<path d="M0 0 C0 8.58 0 17.16 0 26 C0.66 26.33 1.32 26.66 2 27 C1.01 27 0.02 27 -1 27 C-1 19.41 -1 11.82 -1 4 C-4.63 4.99 -8.26 5.98 -12 7 C-15.48 7.29 -15.48 7.29 -18.19 7.19 C-19.78 7.13 -21.36 7.06 -23 7 C-19.3 4.53 -15.77 3.62 -11.5 2.38 C-9.98 1.93 -8.47 1.48 -6.91 1.02 C-3 0 -3 0 0 0 Z " fill="#66B9DA" transform="translate(387,304)"/>
<path d="M0 0 C2.63 0.59 2.63 0.59 5.31 1.19 C6.67 1.33 8.03 1.48 9.44 1.62 C16.5 2.65 22.25 5.53 28.31 9.19 C24.16 11.26 18.07 8.1 13.69 6.88 C11.36 6.23 9.04 5.59 6.71 4.95 C5.06 4.49 5.06 4.49 3.38 4.02 C-0.3 3.02 -3.99 2.09 -7.69 1.19 C-4.69 -0.81 -4.69 -0.81 0 0 Z " fill="#339BCC" transform="translate(748.6875,365.8125)"/>
<path d="M0 0 C6.5 0.74 12.67 2.37 19 4 C19.33 11.26 19.66 18.52 20 26 C19.34 26 18.68 26 18 26 C18 19.4 18 12.8 18 6 C14.37 6 10.74 6 7 6 C7 5.34 7 4.68 7 4 C4.36 3.34 1.72 2.68 -1 2 C-0.67 1.34 -0.34 0.68 0 0 Z " fill="#4FAED8" transform="translate(765,352)"/>
<path d="M0 0 C0.66 0 1.32 0 2 0 C2 0.66 2 1.32 2 2 C2.66 2 3.32 2 4 2 C4.11 4.44 4.19 6.87 4.25 9.31 C4.3 10.67 4.34 12.03 4.39 13.43 C4.26 14.61 4.13 15.78 4 17 C2.68 17.99 1.36 18.98 0 20 C0 13.4 0 6.8 0 0 Z " fill="#EFF4F3" transform="translate(608,306)"/>
</svg>
